<svg width="142" height="142" viewBox="0 0 142 142" fill="none" xmlns="http://www.w3.org/2000/svg">
<path d="M71 0C56.9576 0 43.2304 4.16408 31.5545 11.9657C19.8787 19.7672 10.7784 30.8559 5.40458 43.8295C0.0307629 56.803 -1.37527 71.0787 1.36428 84.8514C4.10383 98.624 10.8659 111.275 20.7954 121.205C30.725 131.134 43.376 137.896 57.1486 140.636C70.9213 143.375 85.197 141.969 98.1705 136.595C111.144 131.222 122.233 122.121 130.034 110.445C137.836 98.7696 142 85.0425 142 71C142 52.1696 134.52 34.1105 121.205 20.7954C107.89 7.48034 89.8304 0 71 0ZM71 133.125C58.7129 133.125 46.7016 129.481 36.4852 122.655C26.2688 115.829 18.3061 106.126 13.604 94.7742C8.90192 83.4223 7.67164 70.9311 10.0687 58.88C12.4659 46.8289 18.3827 35.7593 27.071 27.071C35.7593 18.3827 46.829 12.4658 58.88 10.0687C70.9311 7.67161 83.4224 8.90189 94.7742 13.604C106.126 18.3061 115.829 26.2688 122.655 36.4852C129.481 46.7016 133.125 58.7128 133.125 71C133.125 87.4766 126.58 103.278 114.929 114.929C103.278 126.58 87.4766 133.125 71 133.125Z" fill="#FFDA00"/>
<path d="M115.375 44.8182C114.543 43.9917 113.419 43.5278 112.246 43.5278C111.074 43.5278 109.949 43.9917 109.118 44.8182L59.8615 93.8526L33.2365 67.2276C32.4245 66.3508 31.2974 65.8325 30.1032 65.7867C28.909 65.741 27.7455 66.1715 26.8687 66.9835C25.9919 67.7956 25.4736 68.9227 25.4279 70.1169C25.3821 71.3111 25.8126 72.4746 26.6247 73.3513L59.8615 106.499L115.375 51.1195C115.791 50.707 116.121 50.2162 116.346 49.6754C116.571 49.1347 116.687 48.5547 116.687 47.9689C116.687 47.383 116.571 46.803 116.346 46.2623C116.121 45.7215 115.791 45.2308 115.375 44.8182Z" fill="#FFDA00"/>
</svg>
