<svg width="30" height="33" viewBox="0 0 30 33" fill="none" xmlns="http://www.w3.org/2000/svg">
<path d="M20.1136 5.36364H28.1591C28.5147 5.36364 28.8558 5.50491 29.1073 5.75638C29.3587 6.00785 29.5 6.34891 29.5 6.70455C29.5 7.06018 29.3587 7.40124 29.1073 7.65271C28.8558 7.90418 28.5147 8.04545 28.1591 8.04545H26.676L24.6593 26.2175C24.4771 27.8575 23.6966 29.3727 22.467 30.4732C21.2374 31.5737 19.6451 32.182 17.995 32.1818H11.505C9.85488 32.182 8.26264 31.5737 7.03304 30.4732C5.80344 29.3727 5.02286 27.8575 4.84068 26.2175L2.82127 8.04545H1.34091C0.985278 8.04545 0.644213 7.90418 0.392743 7.65271C0.141274 7.40124 0 7.06018 0 6.70455C0 6.34891 0.141274 6.00785 0.392743 5.75638C0.644213 5.50491 0.985278 5.36364 1.34091 5.36364H9.38636C9.38636 3.94111 9.95146 2.57685 10.9573 1.57097C11.9632 0.565096 13.3275 0 14.75 0C16.1725 0 17.5368 0.565096 18.5427 1.57097C19.5485 2.57685 20.1136 3.94111 20.1136 5.36364ZM14.75 2.68182C14.0387 2.68182 13.3566 2.96437 12.8537 3.4673C12.3507 3.97024 12.0682 4.65237 12.0682 5.36364H17.4318C17.4318 4.65237 17.1493 3.97024 16.6463 3.4673C16.1434 2.96437 15.4613 2.68182 14.75 2.68182ZM5.52186 8.04545L7.50641 25.9225C7.61596 26.9063 8.08442 27.8152 8.82215 28.4752C9.55989 29.1353 10.5151 29.5001 11.505 29.5H17.995C18.9844 29.4995 19.939 29.1343 20.6762 28.4743C21.4133 27.8143 21.8814 26.9058 21.9909 25.9225L23.9808 8.04545H5.52455H5.52186Z" fill="#FFDA00"/>
</svg>
