<svg width="71" height="71" viewBox="0 0 71 71" fill="none" xmlns="http://www.w3.org/2000/svg">
<path d="M35.5 0C26.12 0.113167 17.156 3.88967 10.5228 10.5228C3.88967 17.156 0.113167 26.12 0 35.5C0.113167 44.88 3.88967 53.844 10.5228 60.4772C17.156 67.1103 26.12 70.8868 35.5 71C44.88 70.8868 53.844 67.1103 60.4772 60.4772C67.1103 53.844 70.8868 44.88 71 35.5C70.8868 26.12 67.1103 17.156 60.4772 10.5228C53.844 3.88967 44.88 0.113167 35.5 0ZM55.7857 38.0357H38.0357V55.7857H32.9643V38.0357H15.2143V32.9643H32.9643V15.2143H38.0357V32.9643H55.7857V38.0357Z" fill="#FFDA00"/>
</svg>
