<svg width="139" height="122" viewBox="0 0 139 122" fill="none" xmlns="http://www.w3.org/2000/svg">
<path d="M62.054 93.3673C62.054 95.3484 62.8385 97.2482 64.2349 98.649C65.6313 100.05 67.5252 100.837 69.5 100.837C71.4748 100.837 73.3687 100.05 74.7651 98.649C76.1615 97.2482 76.946 95.3484 76.946 93.3673C76.946 91.3863 76.1615 89.4865 74.7651 88.0857C73.3687 86.6849 71.4748 85.898 69.5 85.898C67.5252 85.898 65.6313 86.6849 64.2349 88.0857C62.8385 89.4865 62.054 91.3863 62.054 93.3673ZM64.536 46.0612V74.6939C64.536 75.3786 65.0944 75.9388 65.777 75.9388H73.223C73.9056 75.9388 74.464 75.3786 74.464 74.6939V46.0612C74.464 45.3765 73.9056 44.8163 73.223 44.8163H65.777C65.0944 44.8163 64.536 45.3765 64.536 46.0612ZM138.329 114.531L73.797 2.4898C72.8352 0.824745 71.1754 0 69.5 0C67.8246 0 66.1493 0.824745 65.203 2.4898L0.670969 114.531C-1.23707 117.861 1.15186 122 4.96794 122H134.032C137.848 122 140.237 117.861 138.329 114.531ZM16.7885 110.189L69.5 18.6579L122.212 110.189H16.7885Z" fill="#FFDA00"/>
</svg>
