<svg width="37" height="37" viewBox="0 0 37 37" fill="none" xmlns="http://www.w3.org/2000/svg">
<path d="M36.0146 6.00453L30.9691 0.954846C29.6979 -0.317467 27.4865 -0.319911 26.2103 0.95729L3.60774 23.7829C3.50755 23.8839 3.43525 24.0081 3.39584 24.1445L0.0322754 35.9272C-0.0515259 36.2206 0.0306199 36.5371 0.246627 36.7532C0.40674 36.9135 0.621092 36.9998 0.841198 36.9998C0.918378 36.9998 0.996424 36.9891 1.07195 36.9677L12.8446 33.6013C12.9809 33.5618 13.1049 33.4895 13.2059 33.3892L36.0146 10.765C36.6502 10.1288 37 9.28389 37 8.38478C37 7.48567 36.6502 6.64064 36.0146 6.00453ZM22.5459 7.07423L25.6413 10.1696L9.48046 26.3305L8.32064 24.0101C8.17771 23.7251 7.88705 23.5453 7.5684 23.5453H6.22175L22.5459 7.07423ZM2.06558 34.9344L3.16091 31.1001L5.89979 33.839L2.06558 34.9344ZM11.7729 32.1613L7.74956 33.3106L3.68934 29.2504L4.83867 25.227H7.04849L8.49786 28.1259C8.57914 28.2885 8.71135 28.4207 8.87398 28.502L11.7728 29.9514V32.1613H11.7729ZM13.4548 30.7783V29.4316C13.4548 29.113 13.2749 28.8223 12.9899 28.6794L10.6695 27.5195L26.8303 11.3587L29.9257 14.4541L13.4548 30.7783ZM34.8279 9.59561L31.1201 13.2703L23.7296 5.87981L27.4019 2.1745C28.0375 1.53885 29.1444 1.53885 29.7801 2.1745L34.8255 7.21992C35.1433 7.5377 35.3182 7.95978 35.3182 8.40899C35.3182 8.85819 35.1433 9.28027 34.8279 9.59561Z" fill="#FFDA00"/>
</svg>
